{
	"asset":{
		"generator":"Khronos glTF Blender I/O v3.6.27",
		"version":"2.0"
	},
	"scene":0,
	"scenes":[
		{
			"name":"Scene",
			"nodes":[
				7,
				8,
				9,
				10,
				11,
				12
			]
		}
	],
	"nodes":[
		{
			"mesh":0,
			"name":"Esfera",
			"rotation":[
				0,
				0.9984586238861084,
				0,
				0.05550087243318558
			],
			"scale":[
				1.0631603002548218,
				1.0631604194641113,
				1.0631605386734009
			],
			"translation":[
				-0.01321928296238184,
				0.019805001094937325,
				0.03124489262700081
			]
		},
		{
			"mesh":1,
			"name":"Esfera.001",
			"rotation":[
				0,
				0.9984586238861084,
				0,
				0.05550087243318558
			],
			"scale":[
				1.0631603002548218,
				1.0631604194641113,
				1.0631605386734009
			],
			"translation":[
				0.010320155881345272,
				0.020190369337797165,
				-0.023582879453897476
			]
		},
		{
			"mesh":2,
			"name":"Esfera.002",
			"rotation":[
				0,
				0.9984586834907532,
				0,
				0.05550086498260498
			],
			"scale":[
				1.2749748229980469,
				1.274975061416626,
				1.274975061416626
			],
			"translation":[
				0.00044231556239537895,
				0.019953913986682892,
				0.02792171947658062
			]
		},
		{
			"mesh":3,
			"name":"Esfera.003",
			"rotation":[
				0,
				0.9984586238861084,
				0,
				0.05550087243318558
			],
			"scale":[
				1.0631603002548218,
				1.0631604194641113,
				1.0631605386734009
			],
			"translation":[
				-0.02176009677350521,
				0.020021123811602592,
				-0.015179772861301899
			]
		},
		{
			"mesh":4,
			"name":"Esfera.004",
			"rotation":[
				0,
				0.9984586238861084,
				0,
				0.05550087243318558
			],
			"scale":[
				1.0631603002548218,
				1.0631604194641113,
				1.0631605386734009
			],
			"translation":[
				0.026767700910568237,
				0.02062838152050972,
				0.0036399425007402897
			]
		},
		{
			"mesh":5,
			"name":"Esfera.005",
			"rotation":[
				0,
				0.9984586238861084,
				0,
				0.05550087243318558
			],
			"scale":[
				1.0631603002548218,
				1.0631604194641113,
				1.0631605386734009
			],
			"translation":[
				-0.01805257610976696,
				0.019794967025518417,
				-0.03050074353814125
			]
		},
		{
			"children":[
				0,
				1,
				2,
				3,
				4,
				5
			],
			"mesh":6,
			"name":"Rosca.001",
			"scale":[
				32.00276565551758,
				32.002655029296875,
				32.002655029296875
			]
		},
		{
			"children":[
				6
			],
			"mesh":7,
			"name":"Icing",
			"rotation":[
				-0.24195927381515503,
				0.792576014995575,
				0.4384362995624542,
				0.34792613983154297
			],
			"scale":[
				0.031247297301888466,
				0.03124740533530712,
				0.03124740533530712
			],
			"translation":[
				-0.002350256312638521,
				0.017609823495149612,
				0.0008107848116196692
			]
		},
		{
			"mesh":8,
			"name":"Plano",
			"translation":[
				0.04371068626642227,
				-5.905641955905594e-05,
				-1.119522213935852
			]
		},
		{
			"mesh":9,
			"name":"Sprinkle",
			"translation":[
				0.03620683401823044,
				0.023471763357520103,
				0.06241762638092041
			]
		},
		{
			"mesh":10,
			"name":"Sprinkle.001",
			"scale":[
				0.9123794436454773,
				0.9123794436454773,
				0.9123794436454773
			],
			"translation":[
				0.042563945055007935,
				0.023746473714709282,
				0.06270591169595718
			]
		},
		{
			"mesh":11,
			"name":"Sprinkle.002",
			"scale":[
				0.7950953245162964,
				0.7950953245162964,
				0.6221563816070557
			],
			"translation":[
				0.03134720027446747,
				0.024586480110883713,
				0.06276753544807434
			]
		},
		{
			"mesh":12,
			"name":"Sprinkle.004",
			"translation":[
				0.038561563938856125,
				0.02368832752108574,
				0.06254531443119049
			]
		}
	],
	"materials":[
		{
			"doubleSided":true,
			"name":"Material.003",
			"pbrMetallicRoughness":{
				"baseColorFactor":[
					1,
					0.18310147523880005,
					0.7454749345779419,
					1
				],
				"metallicFactor":0,
				"roughnessFactor":0.3827160596847534
			}
		},
		{
			"doubleSided":true,
			"name":"Material.005",
			"pbrMetallicRoughness":{
				"baseColorFactor":[
					0.288749635219574,
					0.6355940103530884,
					1,
					1
				],
				"metallicFactor":0,
				"roughnessFactor":0.5
			}
		},
		{
			"doubleSided":true,
			"name":"Material.001",
			"pbrMetallicRoughness":{
				"baseColorFactor":[
					0.06662598252296448,
					0.005115560255944729,
					0.006246777717024088,
					1
				],
				"metallicFactor":0,
				"roughnessFactor":0.20649895071983337
			}
		},
		{
			"doubleSided":true,
			"name":"Material.002",
			"pbrMetallicRoughness":{
				"baseColorTexture":{
					"index":0
				},
				"metallicFactor":0,
				"roughnessFactor":0.5
			}
		},
		{
			"doubleSided":true,
			"name":"Chispas",
			"pbrMetallicRoughness":{
				"metallicFactor":0,
				"roughnessFactor":0.5
			}
		}
	],
	"meshes":[
		{
			"name":"Esfera.002",
			"primitives":[
				{
					"attributes":{
						"POSITION":0,
						"NORMAL":1,
						"TEXCOORD_0":2
					},
					"indices":3,
					"material":0
				}
			]
		},
		{
			"name":"Esfera.003",
			"primitives":[
				{
					"attributes":{
						"POSITION":4,
						"NORMAL":5,
						"TEXCOORD_0":6
					},
					"indices":3,
					"material":1
				}
			]
		},
		{
			"name":"Esfera.004",
			"primitives":[
				{
					"attributes":{
						"POSITION":7,
						"NORMAL":8,
						"TEXCOORD_0":9
					},
					"indices":3,
					"material":0
				}
			]
		},
		{
			"name":"Esfera.005",
			"primitives":[
				{
					"attributes":{
						"POSITION":10,
						"NORMAL":11,
						"TEXCOORD_0":12
					},
					"indices":3,
					"material":0
				}
			]
		},
		{
			"name":"Esfera.006",
			"primitives":[
				{
					"attributes":{
						"POSITION":13,
						"NORMAL":14,
						"TEXCOORD_0":15
					},
					"indices":3,
					"material":1
				}
			]
		},
		{
			"name":"Esfera.007",
			"primitives":[
				{
					"attributes":{
						"POSITION":16,
						"NORMAL":17,
						"TEXCOORD_0":18
					},
					"indices":3,
					"material":0
				}
			]
		},
		{
			"name":"Rosca.002",
			"primitives":[
				{
					"attributes":{
						"POSITION":19,
						"NORMAL":20,
						"TEXCOORD_0":21
					},
					"indices":22,
					"material":2
				}
			]
		},
		{
			"name":"Rosca",
			"primitives":[
				{
					"attributes":{
						"POSITION":23,
						"NORMAL":24,
						"TEXCOORD_0":25
					},
					"indices":26,
					"material":3
				}
			]
		},
		{
			"name":"Plano.001",
			"primitives":[
				{
					"attributes":{
						"POSITION":27,
						"NORMAL":28,
						"TEXCOORD_0":29
					},
					"indices":30
				}
			]
		},
		{
			"name":"Cilindro",
			"primitives":[
				{
					"attributes":{
						"POSITION":31,
						"NORMAL":32,
						"TEXCOORD_0":33
					},
					"indices":34,
					"material":4
				}
			]
		},
		{
			"name":"Cilindro.001",
			"primitives":[
				{
					"attributes":{
						"POSITION":35,
						"NORMAL":36,
						"TEXCOORD_0":37
					},
					"indices":38,
					"material":4
				}
			]
		},
		{
			"name":"Cilindro.002",
			"primitives":[
				{
					"attributes":{
						"POSITION":39,
						"NORMAL":40,
						"TEXCOORD_0":41
					},
					"indices":34,
					"material":4
				}
			]
		},
		{
			"name":"Cilindro.004",
			"primitives":[
				{
					"attributes":{
						"POSITION":42,
						"NORMAL":43,
						"TEXCOORD_0":44
					},
					"indices":45,
					"material":4
				}
			]
		}
	],
	"textures":[
		{
			"sampler":0,
			"source":0
		}
	],
	"images":[
		{
			"mimeType":"image/png",
			"name":"Donut Base",
			"uri":"Donut%20Base.png"
		}
	],
	"accessors":[
		{
			"bufferView":0,
			"componentType":5126,
			"count":559,
			"max":[
				0.001716853934340179,
				0.0017168544000014663,
				0.001716853235848248
			],
			"min":[
				-0.0017168527701869607,
				-0.0017168544000014663,
				-0.0017168544000014663
			],
			"type":"VEC3"
		},
		{
			"bufferView":1,
			"componentType":5126,
			"count":559,
			"type":"VEC3"
		},
		{
			"bufferView":2,
			"componentType":5126,
			"count":559,
			"type":"VEC2"
		},
		{
			"bufferView":3,
			"componentType":5123,
			"count":2880,
			"type":"SCALAR"
		},
		{
			"bufferView":4,
			"componentType":5126,
			"count":559,
			"max":[
				0.001716853934340179,
				0.0017168544000014663,
				0.001716853235848248
			],
			"min":[
				-0.0017168527701869607,
				-0.0017168544000014663,
				-0.0017168544000014663
			],
			"type":"VEC3"
		},
		{
			"bufferView":5,
			"componentType":5126,
			"count":559,
			"type":"VEC3"
		},
		{
			"bufferView":6,
			"componentType":5126,
			"count":559,
			"type":"VEC2"
		},
		{
			"bufferView":7,
			"componentType":5126,
			"count":559,
			"max":[
				0.001716853934340179,
				0.0017168544000014663,
				0.001716853235848248
			],
			"min":[
				-0.0017168527701869607,
				-0.0017168544000014663,
				-0.0017168544000014663
			],
			"type":"VEC3"
		},
		{
			"bufferView":8,
			"componentType":5126,
			"count":559,
			"type":"VEC3"
		},
		{
			"bufferView":9,
			"componentType":5126,
			"count":559,
			"type":"VEC2"
		},
		{
			"bufferView":10,
			"componentType":5126,
			"count":559,
			"max":[
				0.001716853934340179,
				0.0017168544000014663,
				0.001716853235848248
			],
			"min":[
				-0.0017168527701869607,
				-0.0017168544000014663,
				-0.0017168544000014663
			],
			"type":"VEC3"
		},
		{
			"bufferView":11,
			"componentType":5126,
			"count":559,
			"type":"VEC3"
		},
		{
			"bufferView":12,
			"componentType":5126,
			"count":559,
			"type":"VEC2"
		},
		{
			"bufferView":13,
			"componentType":5126,
			"count":559,
			"max":[
				0.001716853934340179,
				0.0017168544000014663,
				0.001716853235848248
			],
			"min":[
				-0.0017168527701869607,
				-0.0017168544000014663,
				-0.0017168544000014663
			],
			"type":"VEC3"
		},
		{
			"bufferView":14,
			"componentType":5126,
			"count":559,
			"type":"VEC3"
		},
		{
			"bufferView":15,
			"componentType":5126,
			"count":559,
			"type":"VEC2"
		},
		{
			"bufferView":16,
			"componentType":5126,
			"count":559,
			"max":[
				0.001716853934340179,
				0.0017168544000014663,
				0.001716853235848248
			],
			"min":[
				-0.0017168527701869607,
				-0.0017168544000014663,
				-0.0017168544000014663
			],
			"type":"VEC3"
		},
		{
			"bufferView":17,
			"componentType":5126,
			"count":559,
			"type":"VEC3"
		},
		{
			"bufferView":18,
			"componentType":5126,
			"count":559,
			"type":"VEC2"
		},
		{
			"bufferView":19,
			"componentType":5126,
			"count":10917,
			"max":[
				0.050170812755823135,
				0.021432755514979362,
				0.0510585755109787
			],
			"min":[
				-0.051168378442525864,
				-0.012027576565742493,
				-0.04964705556631088
			],
			"type":"VEC3"
		},
		{
			"bufferView":20,
			"componentType":5126,
			"count":10917,
			"type":"VEC3"
		},
		{
			"bufferView":21,
			"componentType":5126,
			"count":10917,
			"type":"VEC2"
		},
		{
			"bufferView":22,
			"componentType":5123,
			"count":65160,
			"type":"SCALAR"
		},
		{
			"bufferView":23,
			"componentType":5126,
			"count":2673,
			"max":[
				1.5407551527023315,
				0.6222668290138245,
				1.5782757997512817
			],
			"min":[
				-1.5856834650039673,
				-0.6509870290756226,
				-1.5704058408737183
			],
			"type":"VEC3"
		},
		{
			"bufferView":24,
			"componentType":5126,
			"count":2673,
			"type":"VEC3"
		},
		{
			"bufferView":25,
			"componentType":5126,
			"count":2673,
			"type":"VEC2"
		},
		{
			"bufferView":26,
			"componentType":5123,
			"count":15360,
			"type":"SCALAR"
		},
		{
			"bufferView":27,
			"componentType":5126,
			"count":4,
			"max":[
				1,
				0,
				1
			],
			"min":[
				-1,
				0,
				-1
			],
			"type":"VEC3"
		},
		{
			"bufferView":28,
			"componentType":5126,
			"count":4,
			"type":"VEC3"
		},
		{
			"bufferView":29,
			"componentType":5126,
			"count":4,
			"type":"VEC2"
		},
		{
			"bufferView":30,
			"componentType":5123,
			"count":6,
			"type":"SCALAR"
		},
		{
			"bufferView":31,
			"componentType":5126,
			"count":52,
			"max":[
				0.0006376063684001565,
				0.0004951790324412286,
				0.001961766742169857
			],
			"min":[
				-0.0006376063684001565,
				-0.0004951790324412286,
				-0.001961766742169857
			],
			"type":"VEC3"
		},
		{
			"bufferView":32,
			"componentType":5126,
			"count":52,
			"type":"VEC3"
		},
		{
			"bufferView":33,
			"componentType":5126,
			"count":52,
			"type":"VEC2"
		},
		{
			"bufferView":34,
			"componentType":5123,
			"count":180,
			"type":"SCALAR"
		},
		{
			"bufferView":35,
			"componentType":5126,
			"count":61,
			"max":[
				0.0006376063684001565,
				0.0005636967835016549,
				0.0027066105976700783
			],
			"min":[
				-0.0006376063684001565,
				-0.0004951790324412286,
				-0.004096798598766327
			],
			"type":"VEC3"
		},
		{
			"bufferView":36,
			"componentType":5126,
			"count":61,
			"type":"VEC3"
		},
		{
			"bufferView":37,
			"componentType":5126,
			"count":61,
			"type":"VEC2"
		},
		{
			"bufferView":38,
			"componentType":5123,
			"count":228,
			"type":"SCALAR"
		},
		{
			"bufferView":39,
			"componentType":5126,
			"count":52,
			"max":[
				0.0006376063684001565,
				0.0004951790324412286,
				0.001961766742169857
			],
			"min":[
				-0.0006376063684001565,
				-0.0004951790324412286,
				-0.001961766742169857
			],
			"type":"VEC3"
		},
		{
			"bufferView":40,
			"componentType":5126,
			"count":52,
			"type":"VEC3"
		},
		{
			"bufferView":41,
			"componentType":5126,
			"count":52,
			"type":"VEC2"
		},
		{
			"bufferView":42,
			"componentType":5126,
			"count":79,
			"max":[
				0.0006939400918781757,
				0.0006027164636179805,
				0.0019388950895518064
			],
			"min":[
				-0.0010417615994811058,
				-0.0004567737923935056,
				-0.0023740832693874836
			],
			"type":"VEC3"
		},
		{
			"bufferView":43,
			"componentType":5126,
			"count":79,
			"type":"VEC3"
		},
		{
			"bufferView":44,
			"componentType":5126,
			"count":79,
			"type":"VEC2"
		},
		{
			"bufferView":45,
			"componentType":5123,
			"count":324,
			"type":"SCALAR"
		}
	],
	"bufferViews":[
		{
			"buffer":0,
			"byteLength":6708,
			"byteOffset":0,
			"target":34962
		},
		{
			"buffer":0,
			"byteLength":6708,
			"byteOffset":6708,
			"target":34962
		},
		{
			"buffer":0,
			"byteLength":4472,
			"byteOffset":13416,
			"target":34962
		},
		{
			"buffer":0,
			"byteLength":5760,
			"byteOffset":17888,
			"target":34963
		},
		{
			"buffer":0,
			"byteLength":6708,
			"byteOffset":23648,
			"target":34962
		},
		{
			"buffer":0,
			"byteLength":6708,
			"byteOffset":30356,
			"target":34962
		},
		{
			"buffer":0,
			"byteLength":4472,
			"byteOffset":37064,
			"target":34962
		},
		{
			"buffer":0,
			"byteLength":6708,
			"byteOffset":41536,
			"target":34962
		},
		{
			"buffer":0,
			"byteLength":6708,
			"byteOffset":48244,
			"target":34962
		},
		{
			"buffer":0,
			"byteLength":4472,
			"byteOffset":54952,
			"target":34962
		},
		{
			"buffer":0,
			"byteLength":6708,
			"byteOffset":59424,
			"target":34962
		},
		{
			"buffer":0,
			"byteLength":6708,
			"byteOffset":66132,
			"target":34962
		},
		{
			"buffer":0,
			"byteLength":4472,
			"byteOffset":72840,
			"target":34962
		},
		{
			"buffer":0,
			"byteLength":6708,
			"byteOffset":77312,
			"target":34962
		},
		{
			"buffer":0,
			"byteLength":6708,
			"byteOffset":84020,
			"target":34962
		},
		{
			"buffer":0,
			"byteLength":4472,
			"byteOffset":90728,
			"target":34962
		},
		{
			"buffer":0,
			"byteLength":6708,
			"byteOffset":95200,
			"target":34962
		},
		{
			"buffer":0,
			"byteLength":6708,
			"byteOffset":101908,
			"target":34962
		},
		{
			"buffer":0,
			"byteLength":4472,
			"byteOffset":108616,
			"target":34962
		},
		{
			"buffer":0,
			"byteLength":131004,
			"byteOffset":113088,
			"target":34962
		},
		{
			"buffer":0,
			"byteLength":131004,
			"byteOffset":244092,
			"target":34962
		},
		{
			"buffer":0,
			"byteLength":87336,
			"byteOffset":375096,
			"target":34962
		},
		{
			"buffer":0,
			"byteLength":130320,
			"byteOffset":462432,
			"target":34963
		},
		{
			"buffer":0,
			"byteLength":32076,
			"byteOffset":592752,
			"target":34962
		},
		{
			"buffer":0,
			"byteLength":32076,
			"byteOffset":624828,
			"target":34962
		},
		{
			"buffer":0,
			"byteLength":21384,
			"byteOffset":656904,
			"target":34962
		},
		{
			"buffer":0,
			"byteLength":30720,
			"byteOffset":678288,
			"target":34963
		},
		{
			"buffer":0,
			"byteLength":48,
			"byteOffset":709008,
			"target":34962
		},
		{
			"buffer":0,
			"byteLength":48,
			"byteOffset":709056,
			"target":34962
		},
		{
			"buffer":0,
			"byteLength":32,
			"byteOffset":709104,
			"target":34962
		},
		{
			"buffer":0,
			"byteLength":12,
			"byteOffset":709136,
			"target":34963
		},
		{
			"buffer":0,
			"byteLength":624,
			"byteOffset":709148,
			"target":34962
		},
		{
			"buffer":0,
			"byteLength":624,
			"byteOffset":709772,
			"target":34962
		},
		{
			"buffer":0,
			"byteLength":416,
			"byteOffset":710396,
			"target":34962
		},
		{
			"buffer":0,
			"byteLength":360,
			"byteOffset":710812,
			"target":34963
		},
		{
			"buffer":0,
			"byteLength":732,
			"byteOffset":711172,
			"target":34962
		},
		{
			"buffer":0,
			"byteLength":732,
			"byteOffset":711904,
			"target":34962
		},
		{
			"buffer":0,
			"byteLength":488,
			"byteOffset":712636,
			"target":34962
		},
		{
			"buffer":0,
			"byteLength":456,
			"byteOffset":713124,
			"target":34963
		},
		{
			"buffer":0,
			"byteLength":624,
			"byteOffset":713580,
			"target":34962
		},
		{
			"buffer":0,
			"byteLength":624,
			"byteOffset":714204,
			"target":34962
		},
		{
			"buffer":0,
			"byteLength":416,
			"byteOffset":714828,
			"target":34962
		},
		{
			"buffer":0,
			"byteLength":948,
			"byteOffset":715244,
			"target":34962
		},
		{
			"buffer":0,
			"byteLength":948,
			"byteOffset":716192,
			"target":34962
		},
		{
			"buffer":0,
			"byteLength":632,
			"byteOffset":717140,
			"target":34962
		},
		{
			"buffer":0,
			"byteLength":648,
			"byteOffset":717772,
			"target":34963
		}
	],
	"samplers":[
		{
			"magFilter":9729,
			"minFilter":9987
		}
	],
	"buffers":[
		{
			"byteLength":718420,
			"uri":"Dona.bin"
		}
	]
}
